<mxfile host="65bd71144e">
    <diagram id="b0ck2WXEP198_wLnEEmD" name="Page-1">
        <mxGraphModel dx="671" dy="464" grid="1" gridSize="10" guides="1" tooltips="1" connect="1" arrows="1" fold="1" page="1" pageScale="1" pageWidth="827" pageHeight="1169" math="0" shadow="0">
            <root>
                <mxCell id="0"/>
                <mxCell id="1" parent="0"/>
                <mxCell id="22" value="&lt;div style=&quot;background-color: rgb(30 , 30 , 30) ; font-family: &amp;#34;menlo&amp;#34; , &amp;#34;monaco&amp;#34; , &amp;#34;courier new&amp;#34; , monospace ; line-height: 18px&quot;&gt;&lt;div style=&quot;font-family: &amp;#34;menlo&amp;#34; , &amp;#34;monaco&amp;#34; , &amp;#34;courier new&amp;#34; , monospace ; line-height: 18px&quot;&gt;&lt;div style=&quot;color: rgb(212 , 212 , 212)&quot;&gt;  &lt;span style=&quot;color: #9cdcfe&quot;&gt;post&lt;/span&gt; &lt;span style=&quot;color: #ce9178&quot;&gt;'/add_list'&lt;/span&gt; &lt;span style=&quot;color: #c586c0&quot;&gt;do&lt;/span&gt;&lt;/div&gt;&lt;div&gt;    &lt;span style=&quot;color: rgb(78 , 201 , 176)&quot;&gt;Spaces&lt;/span&gt;&lt;font color=&quot;#d4d4d4&quot;&gt;.&lt;/font&gt;&lt;span style=&quot;color: rgb(220 , 220 , 170)&quot;&gt;add&lt;/span&gt;&lt;font color=&quot;#d4d4d4&quot;&gt;(&lt;/font&gt;&lt;font color=&quot;#ce9178&quot;&gt;.....&lt;/font&gt;&lt;font color=&quot;#d4d4d4&quot;&gt;)&lt;/font&gt;&lt;/div&gt;&lt;div style=&quot;color: rgb(212 , 212 , 212)&quot;&gt;    &lt;span style=&quot;color: #9cdcfe&quot;&gt;redirect&lt;/span&gt; &lt;span style=&quot;color: #ce9178&quot;&gt;????&lt;/span&gt;&lt;/div&gt;&lt;div style=&quot;color: rgb(212 , 212 , 212)&quot;&gt;  &lt;span style=&quot;color: #c586c0&quot;&gt;end&lt;/span&gt;&lt;/div&gt;&lt;/div&gt;&lt;/div&gt;" style="text;html=1;strokeColor=none;fillColor=none;align=center;verticalAlign=middle;whiteSpace=wrap;rounded=0;" vertex="1" parent="1">
                    <mxGeometry x="250" y="150" width="160" height="20" as="geometry"/>
                </mxCell>
                <mxCell id="8" value="&lt;div style=&quot;color: rgb(212 , 212 , 212) ; background-color: rgb(30 , 30 , 30) ; font-family: &amp;#34;menlo&amp;#34; , &amp;#34;monaco&amp;#34; , &amp;#34;courier new&amp;#34; , monospace ; line-height: 18px&quot;&gt;&lt;div&gt;&lt;span style=&quot;color: #9cdcfe&quot;&gt;get&lt;/span&gt; &lt;span style=&quot;color: #ce9178&quot;&gt;'/add_list'&lt;/span&gt; &lt;span style=&quot;color: #c586c0&quot;&gt;do&lt;/span&gt;&lt;/div&gt;&lt;div&gt;    &lt;span style=&quot;color: #9cdcfe&quot;&gt;erb&lt;/span&gt; &lt;span style=&quot;color: #569cd6&quot;&gt;:add_page&lt;/span&gt;&lt;/div&gt;&lt;div&gt;  &lt;span style=&quot;color: #c586c0&quot;&gt;end&lt;/span&gt;&lt;/div&gt;&lt;/div&gt;" style="text;html=1;strokeColor=none;fillColor=none;align=center;verticalAlign=middle;whiteSpace=wrap;rounded=0;" vertex="1" parent="1">
                    <mxGeometry x="240" y="40" width="140" height="20" as="geometry"/>
                </mxCell>
                <mxCell id="2" value="homepage" style="swimlane;" vertex="1" parent="1">
                    <mxGeometry x="30" y="40" width="180" height="210" as="geometry"/>
                </mxCell>
                <mxCell id="12" value="List" style="swimlane;fontStyle=0;childLayout=stackLayout;horizontal=1;startSize=26;horizontalStack=0;resizeParent=1;resizeParentMax=0;resizeLast=0;collapsible=1;marginBottom=0;" vertex="1" parent="2">
                    <mxGeometry x="40" y="68" width="120" height="104" as="geometry"/>
                </mxCell>
                <mxCell id="13" value="Item 1" style="text;strokeColor=none;fillColor=none;align=left;verticalAlign=top;spacingLeft=4;spacingRight=4;overflow=hidden;rotatable=0;points=[[0,0.5],[1,0.5]];portConstraint=eastwest;" vertex="1" parent="12">
                    <mxGeometry y="26" width="120" height="26" as="geometry"/>
                </mxCell>
                <mxCell id="14" value="Item 2" style="text;strokeColor=none;fillColor=none;align=left;verticalAlign=top;spacingLeft=4;spacingRight=4;overflow=hidden;rotatable=0;points=[[0,0.5],[1,0.5]];portConstraint=eastwest;" vertex="1" parent="12">
                    <mxGeometry y="52" width="120" height="26" as="geometry"/>
                </mxCell>
                <mxCell id="15" value="Item 3" style="text;strokeColor=none;fillColor=none;align=left;verticalAlign=top;spacingLeft=4;spacingRight=4;overflow=hidden;rotatable=0;points=[[0,0.5],[1,0.5]];portConstraint=eastwest;" vertex="1" parent="12">
                    <mxGeometry y="78" width="120" height="26" as="geometry"/>
                </mxCell>
                <mxCell id="3" value="" style="shape=flexArrow;endArrow=classic;html=1;" edge="1" parent="1">
                    <mxGeometry width="50" height="50" relative="1" as="geometry">
                        <mxPoint x="210" y="80" as="sourcePoint"/>
                        <mxPoint x="450" y="80" as="targetPoint"/>
                    </mxGeometry>
                </mxCell>
                <mxCell id="5" value="add_page.erb" style="swimlane;startSize=23;" vertex="1" parent="1">
                    <mxGeometry x="450" y="40" width="180" height="180" as="geometry"/>
                </mxCell>
                <mxCell id="6" value="booking.erb" style="swimlane;" vertex="1" parent="1">
                    <mxGeometry x="470" y="410" width="160" height="190" as="geometry"/>
                </mxCell>
                <mxCell id="7" value="booking_form.erb" style="swimlane;" vertex="1" parent="1">
                    <mxGeometry x="140" y="410" width="185" height="190" as="geometry"/>
                </mxCell>
                <mxCell id="11" value="Dates" style="rounded=1;whiteSpace=wrap;html=1;" vertex="1" parent="7">
                    <mxGeometry x="50" y="60" width="70" height="50" as="geometry"/>
                </mxCell>
                <mxCell id="17" value="" style="shape=flexArrow;endArrow=classic;html=1;" edge="1" parent="1" source="14">
                    <mxGeometry width="50" height="50" relative="1" as="geometry">
                        <mxPoint x="110" y="160" as="sourcePoint"/>
                        <mxPoint x="180" y="406" as="targetPoint"/>
                    </mxGeometry>
                </mxCell>
                <mxCell id="20" value="&lt;div style=&quot;color: rgb(212 , 212 , 212) ; background-color: rgb(30 , 30 , 30) ; font-family: &amp;#34;menlo&amp;#34; , &amp;#34;monaco&amp;#34; , &amp;#34;courier new&amp;#34; , monospace ; font-weight: normal ; font-size: 12px ; line-height: 18px&quot;&gt;&lt;div&gt;&lt;span style=&quot;color: #569cd6&quot;&gt;form&lt;/span&gt;&lt;span style=&quot;color: #d4d4d4&quot;&gt; &lt;/span&gt;&lt;span style=&quot;color: #9cdcfe&quot;&gt;action&lt;/span&gt;&lt;span style=&quot;color: #d4d4d4&quot;&gt;=&lt;/span&gt;&lt;span style=&quot;color: #ce9178&quot;&gt;&quot;/add_list&quot;&lt;/span&gt;&lt;span style=&quot;color: #d4d4d4&quot;&gt; &lt;/span&gt;&lt;span style=&quot;color: #9cdcfe&quot;&gt;method&lt;/span&gt;&lt;span style=&quot;color: #d4d4d4&quot;&gt;=&lt;/span&gt;&lt;span style=&quot;color: #ce9178&quot;&gt;&quot;post&quot;&lt;/span&gt;&lt;span style=&quot;color: #808080&quot;&gt;&amp;gt;&lt;/span&gt;&lt;span style=&quot;color: #d4d4d4&quot;&gt; &lt;/span&gt;&lt;/div&gt;&lt;/div&gt;" style="text;whiteSpace=wrap;html=1;" vertex="1" parent="1">
                    <mxGeometry x="460" y="90" width="290" height="30" as="geometry"/>
                </mxCell>
                <mxCell id="18" value="&lt;div style=&quot;color: rgb(212 , 212 , 212) ; background-color: rgb(30 , 30 , 30) ; font-family: &amp;#34;menlo&amp;#34; , &amp;#34;monaco&amp;#34; , &amp;#34;courier new&amp;#34; , monospace ; font-weight: normal ; font-size: 12px ; line-height: 18px&quot;&gt;&lt;div&gt;&lt;span style=&quot;color: #d4d4d4&quot;&gt;  &lt;/span&gt;&lt;span style=&quot;color: #9cdcfe&quot;&gt;get&lt;/span&gt;&lt;span style=&quot;color: #d4d4d4&quot;&gt; &lt;/span&gt;&lt;span style=&quot;color: #ce9178&quot;&gt;'/booking_form'&lt;/span&gt;&lt;span style=&quot;color: #d4d4d4&quot;&gt; &lt;/span&gt;&lt;span style=&quot;color: #c586c0&quot;&gt;do&lt;/span&gt;&lt;span style=&quot;color: #d4d4d4&quot;&gt; &lt;/span&gt;&lt;/div&gt;&lt;div&gt;&lt;span style=&quot;color: #d4d4d4&quot;&gt;  &lt;/span&gt;&lt;span style=&quot;color: #9cdcfe&quot;&gt;erb&lt;/span&gt;&lt;span style=&quot;color: #d4d4d4&quot;&gt; &lt;/span&gt;&lt;span style=&quot;color: #569cd6&quot;&gt;:booking_form&lt;/span&gt;&lt;span style=&quot;color: #d4d4d4&quot;&gt;&amp;nbsp;&lt;/span&gt;&lt;/div&gt;&lt;div&gt;&lt;span style=&quot;color: #d4d4d4&quot;&gt;  &lt;/span&gt;&lt;span style=&quot;color: #c586c0&quot;&gt;end&lt;/span&gt;&lt;span style=&quot;color: #d4d4d4&quot;&gt; &lt;/span&gt;&lt;/div&gt;&lt;/div&gt;" style="text;whiteSpace=wrap;html=1;" vertex="1" parent="1">
                    <mxGeometry x="170" y="300" width="160" height="90" as="geometry"/>
                </mxCell>
                <mxCell id="19" value="&lt;meta charset=&quot;utf-8&quot;&gt;&lt;div style=&quot;color: rgb(212, 212, 212); background-color: rgb(30, 30, 30); font-family: menlo, monaco, &amp;quot;courier new&amp;quot;, monospace; font-weight: normal; font-size: 12px; line-height: 18px;&quot;&gt;&lt;div&gt;&lt;span style=&quot;color: #808080&quot;&gt;&amp;lt;&lt;/span&gt;&lt;span style=&quot;color: #569cd6&quot;&gt;a&lt;/span&gt;&lt;span style=&quot;color: #d4d4d4&quot;&gt; &lt;/span&gt;&lt;span style=&quot;color: #9cdcfe&quot;&gt;href&lt;/span&gt;&lt;span style=&quot;color: #d4d4d4&quot;&gt;=&lt;/span&gt;&lt;span style=&quot;color: #ce9178&quot;&gt;&quot;/booking_form?id=&lt;/span&gt;&lt;span style=&quot;color: #569cd6&quot;&gt;&amp;lt;%=&lt;/span&gt;&lt;span style=&quot;color: #9cdcfe&quot;&gt;item&lt;/span&gt;&lt;span style=&quot;color: #d4d4d4&quot;&gt;.&lt;/span&gt;&lt;span style=&quot;color: #dcdcaa&quot;&gt;id&lt;/span&gt;&lt;span style=&quot;color: #569cd6&quot;&gt;%&amp;gt;&lt;/span&gt;&lt;span style=&quot;color: #ce9178&quot;&gt;&amp;amp;name=&lt;/span&gt;&lt;span style=&quot;color: #569cd6&quot;&gt;&amp;lt;%=&lt;/span&gt;&lt;span style=&quot;color: #d4d4d4&quot;&gt; &lt;/span&gt;&lt;span style=&quot;color: #9cdcfe&quot;&gt;item&lt;/span&gt;&lt;span style=&quot;color: #d4d4d4&quot;&gt;.&lt;/span&gt;&lt;span style=&quot;color: #dcdcaa&quot;&gt;name&lt;/span&gt;&lt;span style=&quot;color: #d4d4d4&quot;&gt; &lt;/span&gt;&lt;span style=&quot;color: #569cd6&quot;&gt;%&amp;gt;&lt;/span&gt;&lt;span style=&quot;color: #ce9178&quot;&gt;&quot;&lt;/span&gt;&lt;span style=&quot;color: #9cdcfe&quot;&gt;,&lt;/span&gt;&lt;span style=&quot;color: #d4d4d4&quot;&gt; &lt;/span&gt;&lt;/div&gt;&lt;/div&gt;" style="text;whiteSpace=wrap;html=1;" vertex="1" parent="1">
                    <mxGeometry x="150" y="260" width="470" height="30" as="geometry"/>
                </mxCell>
                <mxCell id="21" value="" style="shape=flexArrow;endArrow=classic;html=1;entryX=1;entryY=0.75;entryDx=0;entryDy=0;" edge="1" parent="1" target="2">
                    <mxGeometry width="50" height="50" relative="1" as="geometry">
                        <mxPoint x="450" y="198" as="sourcePoint"/>
                        <mxPoint x="460" y="90" as="targetPoint"/>
                    </mxGeometry>
                </mxCell>
                <mxCell id="23" value="" style="shape=flexArrow;endArrow=classic;html=1;fillColor=none;exitX=0.25;exitY=1;exitDx=0;exitDy=0;" edge="1" parent="1" source="20">
                    <mxGeometry width="50" height="50" relative="1" as="geometry">
                        <mxPoint x="480" y="170" as="sourcePoint"/>
                        <mxPoint x="470" y="200" as="targetPoint"/>
                    </mxGeometry>
                </mxCell>
                <mxCell id="24" value="" style="shape=flexArrow;endArrow=classic;html=1;" edge="1" parent="1">
                    <mxGeometry width="50" height="50" relative="1" as="geometry">
                        <mxPoint x="325" y="550" as="sourcePoint"/>
                        <mxPoint x="465" y="550" as="targetPoint"/>
                    </mxGeometry>
                </mxCell>
                <mxCell id="25" value="login_page.erb" style="swimlane;" vertex="1" parent="1">
                    <mxGeometry x="42.5" y="620" width="160" height="190" as="geometry"/>
                </mxCell>
                <mxCell id="26" value="" style="shape=flexArrow;endArrow=classic;html=1;startArrow=none;entryX=0.129;entryY=-0.011;entryDx=0;entryDy=0;entryPerimeter=0;" edge="1" parent="1" source="30" target="25">
                    <mxGeometry width="50" height="50" relative="1" as="geometry">
                        <mxPoint x="60" y="210" as="sourcePoint"/>
                        <mxPoint x="70" y="620" as="targetPoint"/>
                    </mxGeometry>
                </mxCell>
                <mxCell id="28" value="" style="shape=flexArrow;endArrow=classic;html=1;exitX=0.36;exitY=-0.003;exitDx=0;exitDy=0;exitPerimeter=0;" edge="1" parent="1" source="25">
                    <mxGeometry width="50" height="50" relative="1" as="geometry">
                        <mxPoint x="202.5" y="700" as="sourcePoint"/>
                        <mxPoint x="100" y="440" as="targetPoint"/>
                    </mxGeometry>
                </mxCell>
                <mxCell id="29" value="&lt;div style=&quot;background-color: rgb(30 , 30 , 30) ; font-family: &amp;#34;menlo&amp;#34; , &amp;#34;monaco&amp;#34; , &amp;#34;courier new&amp;#34; , monospace ; font-weight: normal ; font-size: 12px ; line-height: 18px&quot;&gt;&lt;div&gt;&lt;font color=&quot;#808080&quot;&gt;??&amp;nbsp;&lt;/font&gt;&lt;/div&gt;&lt;div&gt;&lt;font color=&quot;#808080&quot;&gt;Route&lt;/font&gt;&lt;/div&gt;&lt;div&gt;&lt;font color=&quot;#808080&quot;&gt;??&lt;/font&gt;&lt;/div&gt;&lt;/div&gt;" style="text;whiteSpace=wrap;html=1;align=center;" vertex="1" parent="1">
                    <mxGeometry x="80" y="370" width="46" height="70" as="geometry"/>
                </mxCell>
                <mxCell id="30" value="&lt;div style=&quot;background-color: rgb(30 , 30 , 30) ; font-family: &amp;#34;menlo&amp;#34; , &amp;#34;monaco&amp;#34; , &amp;#34;courier new&amp;#34; , monospace ; font-weight: normal ; font-size: 12px ; line-height: 18px&quot;&gt;&lt;div&gt;&lt;font color=&quot;#808080&quot;&gt;??&amp;nbsp;&lt;/font&gt;&lt;/div&gt;&lt;div&gt;&lt;font color=&quot;#808080&quot;&gt;Route&lt;/font&gt;&lt;/div&gt;&lt;div&gt;&lt;font color=&quot;#808080&quot;&gt;??&lt;/font&gt;&lt;/div&gt;&lt;/div&gt;" style="text;whiteSpace=wrap;html=1;align=center;" vertex="1" parent="1">
                    <mxGeometry x="34" y="350" width="46" height="70" as="geometry"/>
                </mxCell>
                <mxCell id="31" value="" style="shape=flexArrow;endArrow=none;html=1;" edge="1" parent="1" target="30">
                    <mxGeometry width="50" height="50" relative="1" as="geometry">
                        <mxPoint x="60" y="210" as="sourcePoint"/>
                        <mxPoint x="70" y="620" as="targetPoint"/>
                    </mxGeometry>
                </mxCell>
                <mxCell id="32" value="" style="shape=flexArrow;endArrow=classic;html=1;" edge="1" parent="1">
                    <mxGeometry width="50" height="50" relative="1" as="geometry">
                        <mxPoint x="470" y="480" as="sourcePoint"/>
                        <mxPoint x="370" y="420" as="targetPoint"/>
                    </mxGeometry>
                </mxCell>
                <mxCell id="35" value="&lt;div style=&quot;background-color: rgb(30 , 30 , 30) ; font-family: &amp;#34;menlo&amp;#34; , &amp;#34;monaco&amp;#34; , &amp;#34;courier new&amp;#34; , monospace ; font-weight: normal ; font-size: 12px ; line-height: 18px&quot;&gt;&lt;div&gt;&lt;font color=&quot;#808080&quot;&gt;??&amp;nbsp;&lt;/font&gt;&lt;/div&gt;&lt;div&gt;&lt;font color=&quot;#808080&quot;&gt;Route&lt;/font&gt;&lt;/div&gt;&lt;div&gt;&lt;font color=&quot;#808080&quot;&gt;??&lt;/font&gt;&lt;/div&gt;&lt;/div&gt;" style="text;whiteSpace=wrap;html=1;align=center;" vertex="1" parent="1">
                    <mxGeometry x="368" y="550" width="46" height="70" as="geometry"/>
                </mxCell>
                <mxCell id="36" value="&lt;div style=&quot;background-color: rgb(30 , 30 , 30) ; font-family: &amp;#34;menlo&amp;#34; , &amp;#34;monaco&amp;#34; , &amp;#34;courier new&amp;#34; , monospace ; font-weight: normal ; font-size: 12px ; line-height: 18px&quot;&gt;&lt;div&gt;&lt;font color=&quot;#808080&quot;&gt;??&amp;nbsp;&lt;/font&gt;&lt;/div&gt;&lt;div&gt;&lt;font color=&quot;#808080&quot;&gt;Route&lt;/font&gt;&lt;/div&gt;&lt;div&gt;&lt;font color=&quot;#808080&quot;&gt;??&lt;/font&gt;&lt;/div&gt;&lt;/div&gt;" style="text;whiteSpace=wrap;html=1;align=center;" vertex="1" parent="1">
                    <mxGeometry x="368" y="450" width="46" height="70" as="geometry"/>
                </mxCell>
            </root>
        </mxGraphModel>
    </diagram>
</mxfile>